<svg width="240" height="240" viewBox="0 0 240 240" fill="none" xmlns="http://www.w3.org/2000/svg">
<path d="M92.7166 211.615C93.4147 211.848 94.0705 212.117 94.684 212.423C95.2822 212.724 95.7738 213.022 96.1587 213.319L95.7265 214.992C95.2585 214.634 94.7557 214.315 94.2181 214.034C93.6654 213.749 93.1083 213.513 92.5467 213.325C91.5905 213.006 90.8815 212.879 90.4197 212.944C89.9539 213.024 89.6469 213.35 89.4988 213.924C89.3907 214.342 89.4225 214.697 89.5941 214.99C89.7506 215.278 90.0344 215.583 90.4457 215.905C90.8418 216.223 91.359 216.614 91.9971 217.079C92.5633 217.504 93.0593 217.913 93.4849 218.308C93.9105 218.702 94.2099 219.139 94.383 219.617C94.5522 220.111 94.5507 220.691 94.3785 221.357C94.1264 222.333 93.6003 222.965 92.8004 223.254C91.9965 223.557 90.8509 223.461 89.3635 222.965C88.7868 222.773 88.2448 222.541 87.7376 222.271C87.2264 222.016 86.7895 221.761 86.4269 221.506L86.8592 219.832C87.7313 220.477 88.6075 220.946 89.4878 221.24C90.4288 221.554 91.1378 221.681 91.6148 221.621C92.0727 221.572 92.3696 221.284 92.5057 220.757C92.5978 220.401 92.5808 220.084 92.4547 219.807C92.3094 219.539 92.0595 219.262 91.7049 218.976C91.3311 218.7 90.8535 218.347 90.2721 217.917C89.5054 217.375 88.9001 216.879 88.4561 216.428C88.0121 215.977 87.7207 215.509 87.582 215.026C87.4432 214.542 87.4579 213.975 87.626 213.324C87.9062 212.24 88.4842 211.566 89.3599 211.303C90.2317 211.055 91.3506 211.159 92.7166 211.615Z" fill="#131313"/>
<path d="M47.2778 182.003C48.5415 183.594 49.1322 185.119 49.0499 186.579C48.9676 188.039 48.1881 189.467 46.7115 190.863C45.386 192.116 44.0768 192.761 42.7837 192.799C41.469 192.836 40.2246 192.115 39.0504 190.636C38.3538 189.759 37.9328 188.896 37.7873 188.046C37.6203 187.195 37.6889 186.384 37.9932 185.614C38.2759 184.842 38.7428 184.149 39.3939 183.533L40.946 182.066L46.1851 188.662C46.7732 188.019 47.1529 187.407 47.3243 186.829C47.4857 186.237 47.4537 185.62 47.2284 184.978C46.9815 184.334 46.5347 183.605 45.8879 182.79C45.1615 181.876 44.3494 181.173 43.4518 180.684L44.5679 179.629C45.0276 179.874 45.4921 180.203 45.9616 180.615C46.4211 181.014 46.8598 181.476 47.2778 182.003ZM45.1562 189.635L41.0067 184.41L40.3265 185.053C39.6522 185.691 39.289 186.374 39.2371 187.103C39.1635 187.831 39.475 188.633 40.1716 189.51C41.0174 190.575 41.8271 191.082 42.6006 191.031C43.3742 190.98 44.226 190.514 45.1562 189.635Z" fill="#131313"/>
<path d="M25.6857 133.506C25.9456 135.521 25.6581 137.106 24.8233 138.26C23.9885 139.414 22.5679 140.152 20.5616 140.474C18.7606 140.763 17.2914 140.561 16.154 139.868C14.9988 139.163 14.3005 137.874 14.059 136.001C13.9158 134.891 14.0035 133.945 14.3222 133.165C14.623 132.372 15.1064 131.744 15.7723 131.281C16.4204 130.804 17.1868 130.495 18.0715 130.353L20.1805 130.015L21.2578 138.37C22.1027 138.17 22.7506 137.88 23.2015 137.5C23.6503 137.104 23.9454 136.579 24.0868 135.924C24.2103 135.257 24.2056 134.407 24.0726 133.376C23.9232 132.217 23.5887 131.186 23.0689 130.281L24.5855 130.038C24.8543 130.497 25.0839 131.027 25.2743 131.628C25.4626 132.213 25.5998 132.839 25.6857 133.506ZM19.8596 138.594L19.0064 131.977L18.0822 132.125C17.1659 132.272 16.4946 132.631 16.0683 133.201C15.6241 133.758 15.4737 134.592 15.6169 135.703C15.7908 137.052 16.2255 137.922 16.9208 138.312C17.6162 138.703 18.5958 138.797 19.8596 138.594Z" fill="#131313"/>
<path d="M29.7716 89.5409L19.5719 84.5031L20.2628 82.867L21.4714 83.3304C21.2776 82.5577 21.1894 81.8016 21.207 81.0621C21.2307 80.3078 21.3951 79.5695 21.7001 78.8473C22.0299 78.0661 22.4071 77.522 22.8314 77.215C23.262 76.8932 23.7433 76.739 24.2751 76.7523C24.0851 76.0528 23.9978 75.3149 24.0135 74.5389C24.0148 73.7557 24.2053 72.9145 24.5849 72.0154C25.0891 70.8215 25.7638 70.0859 26.609 69.8086C27.4462 69.5095 28.4816 69.6647 29.7153 70.274L36.4936 73.6219L35.7374 75.4128L29.1312 72.1499C28.2275 71.7035 27.5194 71.5943 27.007 71.8222C26.5009 72.0354 26.0643 72.5768 25.697 73.4465C25.4543 74.0213 25.3141 74.6201 25.2766 75.2429C25.2452 75.8509 25.3454 76.4348 25.5771 76.9946C25.9731 77.0833 26.4078 77.2445 26.8812 77.4784L33.4874 80.7412L32.7685 82.4437L26.2054 79.2021C25.3447 78.7769 24.6656 78.6197 24.1681 78.7302C23.6563 78.8337 23.2168 79.3203 22.8495 80.1899C22.6006 80.7795 22.4901 81.4108 22.518 82.0837C22.5378 82.7348 22.6471 83.3588 22.8458 83.9557L30.5278 87.75L29.7716 89.5409Z" fill="#131313"/>
<path d="M68.0696 46.9414C67.4545 47.374 66.8652 47.6617 66.3018 47.8044L65.4996 46.4386C65.7707 46.3649 66.006 46.2774 66.2054 46.1762C66.4179 46.0657 66.6224 45.9414 66.8187 45.8034C67.2637 45.4904 67.5619 45.1638 67.7133 44.8233C67.8778 44.4737 67.957 44.0574 67.9507 43.5744C67.9526 43.1052 67.9133 42.5188 67.8328 41.8151L58.0296 34.9946L59.6982 33.8211L67.5803 39.4486L66.2748 29.1962L67.9239 28.0365L69.523 40.1586C69.6577 41.1751 69.7331 42.1065 69.7494 42.9529C69.7737 43.813 69.6647 44.572 69.4223 45.2298C69.1879 45.9015 68.7371 46.472 68.0696 46.9414Z" fill="#131313"/>
<path d="M117.796 27V15.624H119.572L119.716 17.064C120.276 16.696 120.932 16.36 121.684 16.056C122.452 15.752 123.204 15.528 123.94 15.384V16.92C123.492 17.016 123.004 17.152 122.476 17.328C121.948 17.488 121.444 17.672 120.964 17.88C120.484 18.088 120.084 18.304 119.764 18.528V27H117.796Z" fill="#131313"/>
<path d="M172.431 42.7288C170.771 41.5564 169.776 40.2582 169.446 38.8341C169.115 37.41 169.462 35.8209 170.488 34.0668C171.409 32.4922 172.484 31.5052 173.715 31.1059C174.967 30.702 176.364 31.0447 177.906 32.134C178.821 32.7801 179.467 33.4905 179.845 34.265C180.245 35.0349 180.406 35.8322 180.33 36.6568C180.276 37.4769 180.022 38.2737 179.57 39.0471L178.492 40.8911L171.611 36.0309C171.227 36.8137 171.034 37.5069 171.032 38.1104C171.043 38.7232 171.247 39.3063 171.644 39.8597C172.061 40.4085 172.695 40.9829 173.544 41.5829C174.498 42.2568 175.475 42.7026 176.474 42.9204L175.699 44.2464C175.189 44.1398 174.65 43.9548 174.084 43.6915C173.531 43.4374 172.98 43.1165 172.431 42.7288ZM172.326 34.8085L177.775 38.6579L178.248 37.8499C178.716 37.0488 178.873 36.291 178.718 35.5767C178.585 34.8578 178.06 34.1752 177.146 33.5291C176.035 32.7444 175.115 32.4853 174.387 32.7516C173.659 33.0179 172.972 33.7036 172.326 34.8085Z" fill="#131313"/>
<path d="M206.514 82.5007C206.232 81.8211 206.005 81.1495 205.832 80.4858C205.667 79.837 205.569 79.2699 205.54 78.7844L207.085 78.0093C207.122 78.5977 207.211 79.1869 207.352 79.7766C207.5 80.3811 207.687 80.9567 207.914 81.5034C208.301 82.4342 208.67 83.0524 209.022 83.3581C209.388 83.6565 209.836 83.673 210.365 83.4074C210.751 83.2136 210.998 82.9557 211.106 82.6336C211.22 82.3263 211.264 81.9115 211.237 81.3893C211.216 80.8819 211.172 80.2345 211.104 79.4472C211.053 78.741 211.036 78.0976 211.054 77.5172C211.072 76.9367 211.204 76.4238 211.451 75.9784C211.713 75.5259 212.151 75.1453 212.766 74.8367C213.667 74.3845 214.488 74.3651 215.23 74.7784C215.986 75.1844 216.665 76.1115 217.267 77.5594C217.5 78.1209 217.682 78.6817 217.811 79.2419C217.954 79.7949 218.048 80.2922 218.094 80.7337L216.549 81.5088C216.463 80.4273 216.241 79.4581 215.885 78.6011C215.505 77.685 215.135 77.0668 214.778 76.7464C214.44 76.4336 214.028 76.3992 213.542 76.6432C213.213 76.8083 212.986 77.0297 212.859 77.3075C212.753 77.5929 212.708 77.9635 212.725 78.4195C212.762 78.883 212.809 79.4752 212.867 80.1963C212.962 81.1309 212.985 81.914 212.936 82.5455C212.887 83.1771 212.726 83.7043 212.453 84.1273C212.179 84.5503 211.742 84.9125 211.141 85.214C210.14 85.7164 209.254 85.724 208.481 85.2368C207.722 84.7425 207.067 83.8305 206.514 82.5007Z" fill="#131313"/>
<path d="M213.811 133.725C213.985 132.376 214.489 131.412 215.322 130.832C216.152 130.269 217.279 130.101 218.701 130.328L225.81 131.464L225.558 133.416L218.377 132.268C217.445 132.119 216.728 132.24 216.226 132.629C215.722 133.034 215.407 133.729 215.279 134.713C215.189 135.411 215.23 136.09 215.403 136.749C215.576 137.408 215.855 137.995 216.24 138.51L224.724 139.866L224.471 141.818L213.238 140.023L213.466 138.261L214.761 138.347C214.388 137.737 214.108 137.036 213.92 136.245C213.732 135.453 213.696 134.613 213.811 133.725Z" fill="#131313"/>
<path d="M196.597 176.975L204.911 184.741L203.798 186.125L202.776 185.334C202.746 186.135 202.619 186.891 202.397 187.6C202.165 188.322 201.803 188.989 201.312 189.6C200.781 190.261 200.27 190.679 199.781 190.855C199.281 191.043 198.78 191.056 198.277 190.892C198.264 191.622 198.142 192.359 197.911 193.104C197.692 193.861 197.277 194.619 196.666 195.38C195.854 196.39 195.007 196.909 194.125 196.936C193.244 196.987 192.301 196.543 191.296 195.604L185.771 190.444L186.989 188.928L192.374 193.958C193.11 194.646 193.754 194.953 194.305 194.878C194.847 194.816 195.413 194.417 196.004 193.681C196.395 193.195 196.695 192.656 196.904 192.065C197.103 191.487 197.17 190.894 197.105 190.288C196.752 190.089 196.383 189.81 195.997 189.45L190.613 184.42L191.771 182.98L197.12 187.977C197.822 188.632 198.425 188.977 198.929 189.011C199.445 189.057 199.999 188.712 200.59 187.976C200.991 187.477 201.272 186.899 201.433 186.241C201.595 185.606 201.664 184.972 201.641 184.339L195.379 178.49L196.597 176.975Z" fill="#131313"/>
<path d="M145.222 212.108C147.151 211.47 148.717 211.465 149.921 212.093C151.124 212.721 151.982 214.018 152.495 215.984C152.955 217.749 152.907 219.271 152.349 220.548C151.78 221.846 150.599 222.791 148.806 223.384C147.743 223.735 146.817 223.823 146.028 223.646C145.229 223.49 144.571 223.119 144.055 222.533C143.528 221.967 143.151 221.251 142.925 220.384L142.386 218.317L150.384 215.673C150.105 214.857 149.759 214.257 149.345 213.872C148.916 213.493 148.377 213.293 147.728 213.272C147.068 213.271 146.244 213.434 145.257 213.761C144.148 214.127 143.18 214.657 142.355 215.351L141.967 213.864C142.385 213.508 142.877 213.177 143.441 212.873C143.99 212.574 144.583 212.319 145.222 212.108ZM150.742 217.043L144.407 219.137L144.643 220.043C144.877 220.941 145.292 221.552 145.888 221.876C146.473 222.221 147.298 222.218 148.361 221.866C149.652 221.439 150.453 220.839 150.762 220.064C151.071 219.289 151.065 218.282 150.742 217.043Z" fill="#131313"/>
<path d="M120 99.618L124.464 113.356L124.576 113.702H124.939H139.384L127.698 122.192L127.404 122.406L127.516 122.751L131.98 136.489L120.294 127.999L120 127.785L119.706 127.999L108.02 136.489L112.484 122.751L112.596 122.406L112.302 122.192L100.616 113.702H115.061H115.424L115.536 113.356L120 99.618Z" stroke="#131313"/>
<rect x="0.5" y="0.5" width="239" height="239" rx="119.5" stroke="#131313"/>
</svg>
